HIERARCHY
ROOT Hips
{
    OFFSET 11.54377555847168 81.08525848388672 -17.08905029296875
    CHANNELS 6 Xposition Yposition Zposition Zrotation Xrotation Yrotation
    JOINT RightUpLeg
    {
        OFFSET -11.54377555847168 0.0 0.0
        CHANNELS 3 Zrotation Xrotation Yrotation
        JOINT RightLeg
        {
            OFFSET 0.0 -38.362632751464844 0.0
            CHANNELS 3 Zrotation Xrotation Yrotation
            JOINT RightFoot
            {
                OFFSET 0.0 -42.722625732421875 0.0
                CHANNELS 3 Zrotation Xrotation Yrotation
                End Site RightFoot_End
                {
                    OFFSET 0.0 0.0 17.08905029296875
                }
            }
        }
    }
    JOINT LeftUpLeg
    {
        OFFSET 11.54377555847168 0.0 0.0
        CHANNELS 3 Zrotation Xrotation Yrotation
        JOINT LeftLeg
        {
            OFFSET 0.0 -38.362632751464844 0.0
            CHANNELS 3 Zrotation Xrotation Yrotation
            JOINT LeftFoot
            {
                OFFSET 0.0 -42.722625732421875 0.0
                CHANNELS 3 Zrotation Xrotation Yrotation
                End Site LeftFoot_End
                {
                    OFFSET 0.0 0.0 17.08905029296875
                }
            }
        }
    }
    JOINT Spine
    {
        OFFSET 0.0 22.190038681030273 0.0
        CHANNELS 3 Zrotation Xrotation Yrotation
        JOINT Spine3
        {
            OFFSET 0.0 25.225337982177734 0.0
            CHANNELS 3 Zrotation Xrotation Yrotation
            JOINT Neck
            {
                OFFSET 0.0 13.990423202514648 0.0
                CHANNELS 3 Zrotation Xrotation Yrotation
                End Site Head
                {
                    OFFSET 0.0 5.596169948577881 0.0
                }
            }
            JOINT LeftArm
            {
                OFFSET 16.194419860839844 0.0 0.0
                CHANNELS 3 Zrotation Xrotation Yrotation
                JOINT LeftForeArm
                {
                    OFFSET 28.731082916259766 0.0 0.0
                    CHANNELS 3 Zrotation Xrotation Yrotation
                    JOINT LeftHand
                    {
                        OFFSET 23.991458892822266 0.0 0.0
                        CHANNELS 3 Zrotation Xrotation Yrotation
                        End Site LeftWristEndSite
                        {
                            OFFSET 9.596583366394043 0.0 0.0
                        }
                    }
                }
            }
            JOINT RightArm
            {
                OFFSET -16.194419860839844 0.0 0.0
                CHANNELS 3 Zrotation Xrotation Yrotation
                JOINT RightForeArm
                {
                    OFFSET -28.731082916259766 0.0 0.0
                    CHANNELS 3 Zrotation Xrotation Yrotation
                    JOINT RightHand
                    {
                        OFFSET -23.991458892822266 0.0 0.0
                        CHANNELS 3 Zrotation Xrotation Yrotation
                        End Site RightWristEndSite
                        {
                            OFFSET -9.596583366394043 0.0 0.0
                        }
                    }
                }
            }
        }
    }
}
MOTION
Frames: 8
Frame Time: 0.03333333333333333
-0.0 83.22667694091797 0.0 0.5089972233888818 -8.53623897600256 22.826409457165614 -32.032796112566224 -23.23341864809102 -14.820432781750968 31.806516517301127 48.65009203326032 -5.436441083739627 0.0 0.0 3.1308585145656493e-15 17.438576368623202 20.819633336224502 -4.723950983739112 5.736605253230776 9.45323460871836 -4.473700272641896 -1.5902773407317582e-15 6.620859447075238e-32 -4.770832022195274e-15 -0.7137553033341693 -5.536275402555253 109.98683905798312 1.421093093672269e-07 -1.0568635238881781e-06 -125.53333517539102 -22.82367696891578 -15.484039268454964 -29.439928516538597 129.21542309100883 -49.22360282361661 123.42323827920528 -126.5311666818669 1.3689533586297069e-06 -5.051960759315247e-06 0.0 0.0 0.0 106.8721654900056 -82.92590886184209 74.66228485407655 119.77846063227139 -3.5205877121878356e-06 4.758175768987583e-06 1.1927080055488192e-15 0.0 0.0
-0.0 83.22667694091797 0.0 1.1059365205191536 -11.719959860462433 25.32045897185646 -26.29582122641355 -17.422582212575943 -9.88413392231227 29.935657583011842 46.04892146105143 -5.3592354383163165 0.0 0.0 9.442271710594815e-16 18.88257927086557 20.229969978020982 -4.974874205948084 5.980706784144405 10.558416359543424 -4.879234264952185 1.5902773407317582e-15 4.965644585306429e-32 3.578124016646456e-15 -3.199189446589855 -6.797410502470427 105.38316373526759 8.633240787577285e-07 2.338338846834106e-07 -123.96207647223093 -24.132981071092335 -15.396658884576008 -27.08456676152222 122.30246502829252 -51.60269583567062 114.45738424684596 -128.8243307559743 -3.553471578947232e-06 -1.3433324520950488e-06 4.770832022195274e-15 0.0 0.0 84.15056716929709 -82.42657356116753 50.14240532011435 116.19007621188621 -5.353938616528934e-06 2.1363814117841505e-06 -3.1805546814635168e-15 -6.3611093629270335e-15 -1.7655625192200634e-31
-0.0 83.22667694091797 0.0 3.0411544984505867 -12.317648184585813 27.51856422759689 -16.959225018085917 -6.766669576405005 -3.691767594741759 23.643204085429428 35.38235257150423 -4.940568520303327 6.957463365701443e-16 1.2424041724466855e-17 -1.3914926731402886e-15 16.865727295091485 17.917603895545742 -3.681822543345702 6.534145978162546 11.11238675371085 -4.742855286708376 -8.827812596100317e-32 -3.1805546814635168e-15 -3.1805546814635168e-15 -3.7424175978272656 -6.107009010875406 98.69984635317188 7.008273968028363e-07 -3.1819413712733737e-07 -119.35419502144266 -26.595187746289106 -14.13249452635176 -25.35363371176183 119.37900052164721 -51.169037488619715 113.03111819299146 -129.35893483917243 -1.332238882377689e-06 -1.4075986849698415e-06 -1.5902773407317584e-15 8.827812596100317e-32 -6.3611093629270335e-15 78.43454886940263 -78.75089582849064 48.16511326190007 111.581415504811 -5.168432287912396e-06 8.579839213020672e-07 4.770832022195275e-15 6.3611093629270335e-15 -2.648343778830095e-31
-0.0 83.22667694091797 0.0 3.612263302314222 -13.006572921453932 30.001143846622952 -13.455292268440191 -4.773344184808613 -2.5390952009225054 22.729675905316274 32.03654553002348 -5.252603313561882 -1.9878466759146977e-16 -1.5902773407317582e-15 -5.466578358765419e-16 17.660972272232495 14.861144141719837 -3.055084762820331 4.8485794369732105 13.000395860298973 -5.0658395116013395 1.5902773407317584e-15 3.1805546814635168e-15 7.951386703658792e-16 -4.628771871226637 -6.1324264602486 93.65918231471352 2.704753107959044e-07 7.456702115152433e-07 -115.94608990327312 -27.6155260350535 -12.709937542378087 -24.4429725248716 115.70384296903072 -51.61216214772843 108.49462233165862 -127.39170335087825 1.2246718014845875e-06 -1.2652064584322505e-06 6.361109362927033e-15 -9.541664044390549e-15 5.29668755766019e-31 60.95910279137199 -78.8159158159206 33.53566308847304 112.38215506105202 3.6677489750573984e-07 3.943925136762628e-06 1.5902773407317584e-15 0.0 0.0
-0.0 83.22667694091797 0.0 3.9748486821706672 -12.538652981337577 33.52449110876095 -18.138544737733085 -11.997832648247037 -5.126264420379105 27.67171380629331 39.887861476060195 -6.421835243647588 -4.969616689786746e-17 -1.2424041724466862e-17 -3.640244225268791e-15 19.422547666736754 8.619944056906183 -1.6292113838700166 3.389050459835899 16.6973630808228 -6.461884477834037 0.0 0.0 -4.373262687012335e-15 -3.792777504754529 -5.009951706077996 87.09915534384224 1.006363958302354e-06 -1.0988893217874007e-06 -111.39407471684102 -29.86255502507966 -11.038284767082393 -25.62049313280294 116.24974897439566 -52.152470293991506 110.43194551683598 -125.84781504347833 -2.0587311256021596e-06 -7.2704674663862526e-06 3.1805546814635164e-15 3.1805546814635164e-15 -3.1805546814635164e-15 71.09583666487586 -78.70535050218014 45.65592056094707 108.87929025714858 8.856908292475537e-07 -2.3016502514613696e-07 3.1805546814635168e-15 -6.3611093629270335e-15 1.7655625192200634e-31
-0.0 83.22667694091797 0.0 4.825297323328252 -10.550500818264775 34.154404429910414 -26.95838875854176 -22.406425639552236 -12.049049217182388 35.77683602784125 54.766468605046526 -9.511845130793308 -2.981770013872049e-16 3.1805546814635168e-15 6.448077654998302e-15 15.496019133650638 -1.2647534410615282 1.5146940277105878 4.908601500239785 28.58873200570138 -9.768789933672364 0.0 0.0 5.9635400277440935e-15 -1.1930809609709647 -3.40586105007735 87.22629761140817 1.6889420736700076e-06 -1.165967321800142e-06 -111.44474141401689 -32.321640348626424 -11.860728372323493 -26.97134503862461 117.5393931654995 -47.971717530326714 116.44220073335742 -124.30545447501568 3.8969433255881716e-07 -7.374783075537931e-08 -4.770832022195275e-15 -1.3241718894150476e-31 3.1805546814635168e-15 78.34041812068998 -77.86492267173264 60.70265695750882 108.25450341374174 3.0866030008068972e-06 3.3285854912846304e-06 0.0 0.0 0.0
-0.0 83.22667694091797 0.0 4.413623060093887 -10.801503415709742 33.98266228773562 -26.88464314638505 -26.43854836125938 -13.92707050061065 37.91988682362871 62.81581641784067 -12.787200317250578 1.1927080055488186e-15 9.939233379573489e-17 -3.478731682850721e-16 11.542713881364975 -8.242295739314487 2.6410041430894746 11.524684585079111 36.69527912507037 -13.474968377929741 0.0 0.0 2.3854160110976384e-15 -1.0405750936788003 -3.4513490297655784 93.01739323579848 -9.914078012534932e-07 -6.51064917572204e-07 -116.76765166666635 -33.639992741303566 -15.612456578878595 -29.287449910923296 120.92941483656645 -53.180876710937625 118.48974287501935 -119.17077187258221 -2.773964065393658e-06 -4.243650279134003e-06 -1.5902773407317584e-15 -3.1805546814635168e-15 -6.3611093629270335e-15 74.28039375182637 -78.16866208738068 58.53566878675556 109.63602492558209 2.602926151862247e-06 1.7390925241618868e-06 0.0 0.0 0.0
-0.0 83.22667694091797 0.0 3.018341803454311 -9.87985092845298 35.735948081003855 -27.443720118427596 -27.883090363557674 -14.472018673460104 45.13144939028263 61.81876304981081 -19.56948228838131 -4.47265502080807e-16 1.8184733588768658e-33 -4.659015646675072e-16 13.019164235809505 -14.739452037710054 4.341027105326914 12.505741886963454 39.690110275200325 -16.182263699951317 -1.5902773407317584e-15 -3.862168010793889e-32 2.782985346280577e-15 -0.605093505064496 -3.284683139143298 96.98926334357537 -9.441329871006407e-07 -1.7364823490614343e-06 -123.11948786100069 -30.292109781015224 -18.214545431558722 -29.869611535225957 123.07622631436352 -52.75582873660652 118.84205025687949 -122.49782586462264 5.959513813585279e-07 3.8168453393049995e-06 -1.1131941385122307e-14 0.0 0.0 72.24056880576659 -83.21590578425716 56.718445994491255 114.58562100477585 -1.6854850373139964e-06 -1.2964981472618337e-06 -1.5902773407317584e-15 0.0 0.0
